<svg data-generator="beautiful-mermaid@1.1.3" data-css-normalized="static-colors" xmlns="http://www.w3.org/2000/svg" viewBox="0 0 201.6 276" width="201.6" height="276" style="background:#ffffff">
<style>500;600;700&amp;display=swap');500&amp;display=swap');
  text { font-family: 'Inter', system-ui, sans-serif; }
  .mono { font-family: 'JetBrains Mono', 'SF Mono', 'Fira Code', ui-monospace, monospace; }
  svg {
    /* Derived from --bg and --fg (overridable via --line, --accent, etc.) */
  }
</style>
<defs>
  <marker id="cls-inherit" markerWidth="12" markerHeight="10" refX="12" refY="5" orient="auto-start-reverse">
    <polygon points="0 0, 12 5, 0 10" fill="#ffffff" stroke="#2563eb" stroke-width="1.5" />
  </marker>
  <marker id="cls-composition" markerWidth="12" markerHeight="10" refX="0" refY="5" orient="auto-start-reverse">
    <polygon points="6 0, 12 5, 6 10, 0 5" fill="#2563eb" stroke="#2563eb" stroke-width="1" />
  </marker>
  <marker id="cls-aggregation" markerWidth="12" markerHeight="10" refX="0" refY="5" orient="auto-start-reverse">
    <polygon points="6 0, 12 5, 6 10, 0 5" fill="#ffffff" stroke="#2563eb" stroke-width="1.5" />
  </marker>
  <marker id="cls-arrow" markerWidth="8" markerHeight="6" refX="8" refY="3" orient="auto-start-reverse">
    <polyline points="0 0, 8 3, 0 6" fill="none" stroke="#2563eb" stroke-width="1.5" />
  </marker>
</defs>
<polyline class="class-relationship" data-from="Diagram" data-to="Flowchart" data-type="inheritance" data-marker-at="from" points="100.8,128 100.8,188" fill="none" stroke="#71717a" stroke-width="1" marker-start="url(#cls-inherit)" />
<g class="class-node" data-id="Diagram" data-label="Diagram">
  <rect x="40" y="40" width="121.6" height="88" rx="0" ry="0" fill="#f4f4f5" stroke="#d4d4d8" stroke-width="1" />
  <rect x="40" y="40" width="121.6" height="32" rx="0" ry="0" fill="#f4f4f5" stroke="#d4d4d8" stroke-width="1" />
  <text x="100.8" y="56" text-anchor="middle" font-size="13" font-weight="700" fill="#27272a" dy="4.55">Diagram</text>
  <line x1="40" y1="72" x2="161.6" y2="72" stroke="#d4d4d8" stroke-width="0.75" />
  <text x="48" y="86" class="mono" dy="0.35em" font-size="11" font-weight="400"><tspan fill="#a1a1aa">+ </tspan><tspan fill="#52525b">source</tspan><tspan fill="#a1a1aa">: </tspan><tspan fill="#71717a">String</tspan></text>
  <line x1="40" y1="100" x2="161.6" y2="100" stroke="#d4d4d8" stroke-width="0.75" />
  <text x="48" y="114" class="mono" dy="0.35em" font-size="11" font-weight="400"><tspan fill="#a1a1aa">+ </tspan><tspan fill="#52525b">render()</tspan></text>
</g>
<g class="class-node" data-id="Flowchart" data-label="Flowchart">
  <rect x="40.8" y="188" width="120" height="48" rx="0" ry="0" fill="#f4f4f5" stroke="#d4d4d8" stroke-width="1" />
  <rect x="40.8" y="188" width="120" height="32" rx="0" ry="0" fill="#f4f4f5" stroke="#d4d4d8" stroke-width="1" />
  <text x="100.8" y="204" text-anchor="middle" font-size="13" font-weight="700" fill="#27272a" dy="4.55">Flowchart</text>
  <line x1="40.8" y1="220" x2="160.8" y2="220" stroke="#d4d4d8" stroke-width="0.75" />
  <line x1="40.8" y1="228" x2="160.8" y2="228" stroke="#d4d4d8" stroke-width="0.75" />
</g>

</svg>
